<?xml version="1.0" standalone="no"?><!DOCTYPE svg PUBLIC "-//W3C//DTD SVG 1.1//EN" "http://www.w3.org/Graphics/SVG/1.1/DTD/svg11.dtd"><svg t="1510104468417" class="icon" style="" viewBox="0 0 1024 1024" version="1.1" xmlns="http://www.w3.org/2000/svg" p-id="16892" xmlns:xlink="http://www.w3.org/1999/xlink" width="16" height="16"><defs><style type="text/css"></style></defs><path d="M353.194 155.375q23.886 0 40.881 16.536t16.995 40.421v229.665q0 23.886-16.995 40.881t-40.881 16.995H123.529q-23.886 0-40.421-16.995t-16.536-40.881V212.332q0-23.886 16.536-40.421t40.421-16.536h229.665z m0 459.33q23.886 0 40.881 16.536t16.995 40.421v230.584q0 23.886-16.995 40.421t-40.881 16.536H123.529q-23.886 0-40.421-16.536t-16.536-40.421V671.662q0-23.886 16.536-40.421t40.421-16.536h229.665z m460.249 0q23.886 0 40.421 16.536t16.536 40.421v230.584q0 23.886-16.536 40.421t-40.421 16.536H583.778q-23.886 0-40.881-16.536t-16.995-40.421V671.662q0-23.886 16.995-40.421t40.881-16.536h229.665z m127.693-358.278q18.373 18.373 18.373 43.177t-18.373 42.259L770.265 512.734q-18.373 18.373-42.718 18.373t-42.718-18.373L513.958 341.863q-17.454-17.454-17.454-42.259t17.454-43.177L684.829 85.556q18.373-17.454 42.718-17.454t42.718 17.454z" fill="#ffffff" p-id="16893"></path></svg>