<?xml version="1.0" standalone="no"?><!DOCTYPE svg PUBLIC "-//W3C//DTD SVG 1.1//EN" "http://www.w3.org/Graphics/SVG/1.1/DTD/svg11.dtd"><svg t="1510104958470" class="icon" style="" viewBox="0 0 1024 1024" version="1.1" xmlns="http://www.w3.org/2000/svg" p-id="24454" xmlns:xlink="http://www.w3.org/1999/xlink" width="16" height="16"><defs><style type="text/css"></style></defs><path d="M803.458173 433.471067h-64.403411V283.687907c0-125.441311-101.953381-227.44691-227.390596-227.44691-125.441311 0-227.507319 102.007647-227.50732 227.44691v149.782136h-64.349144c-31.026797 0-56.174444 25.143552-56.174445 56.175469v410.094741c0 31.086182 25.147647 56.231782 56.174445 56.231782h583.707808c31.033964 0 56.120179-25.147647 56.120179-56.231782V489.646536c-0.006143-31.033964-25.141504-56.175468-56.179564-56.175469h0.002048zM543.208025 705.381221v89.549011c0 3.999296-3.310221 7.372998-7.372999 7.372998H487.546547c-4.112947 0-7.429312-3.373702-7.429312-7.372998v-89.549011c-22.686227-11.601645-38.398771-34.861248-38.398771-62.12117 0-38.571808 31.316557-69.946726 69.893483-69.946726 38.629146 0 69.948774 31.374918 69.948774 69.946726 0.054266 27.261971-15.659302 50.519526-38.348601 62.12117h-0.004095z m108.582015-271.910154H371.536244V287.399491c0-77.265458 62.915705-140.184235 140.182188-140.184235s140.070584 62.917753 140.070584 140.184235v146.071576h0.001024z" fill="#ffffff" p-id="24455"></path></svg>