<?xml version="1.0" standalone="no"?><!DOCTYPE svg PUBLIC "-//W3C//DTD SVG 1.1//EN" "http://www.w3.org/Graphics/SVG/1.1/DTD/svg11.dtd"><svg t="1510229278873" class="icon" style="" viewBox="0 0 1024 1024" version="1.1" xmlns="http://www.w3.org/2000/svg" p-id="8561" xmlns:xlink="http://www.w3.org/1999/xlink" width="32" height="32"><defs><style type="text/css"></style></defs><path d="M53.642643 302.167788a23.860765 23.860765 0 0 1-11.665916-44.680163L496.873979 3.041366a23.860765 23.860765 0 0 1 23.228984 0l140.035067 77.870722a23.860765 23.860765 0 0 1-23.199598 41.59472l-128.413229-71.33252L65.279174 299.11173a23.699146 23.699146 0 0 1-11.636531 3.056058zM834.333367 236.256833a23.743224 23.743224 0 0 1-12.062616-3.29114l-104.317383-61.326867a23.860765 23.860765 0 1 1 24.169309-41.139249l104.317383 61.326867a23.860765 23.860765 0 0 1-12.106693 44.430389zM945.086104 302.167788a23.684454 23.684454 0 0 1-11.621838-3.041366l-45.767415-25.623875a23.851949 23.851949 0 1 1 23.302446-41.624105l45.767415 25.623875a23.860765 23.860765 0 0 1-11.680608 44.665471z" p-id="8562" class="selected" fill="#f96603"></path><path d="M966.522591 301.756396v22.655972H46.296348v-22.655972h920.226243m38.200732-38.200732H8.095617v98.998666h996.598321v-98.954588zM986.798364 944.645326v41.13925H38.156654v-41.13925h948.64171m38.200732-38.200732H0v117.540713h1024.969711v-117.540713z" p-id="8563" class="selected" fill="#f96603"></path><path d="M924.780946 883.450692v24.213387H100.188765v-24.213387h824.592181m38.200731-38.200731H62.017419v100.55608h900.920181v-100.526695z" p-id="8564" class="selected" fill="#f96603"></path><path d="M427.128259 853.992051a95.648755 95.648755 0 0 0 0.822785-11.930382V580.063419a96.236459 96.236459 0 0 0-192.472918 0v261.99825a95.648755 95.648755 0 0 0 0.822785 11.930382zM781.366583 853.992051a95.648755 95.648755 0 0 0 0.822785-11.930382V580.063419a96.236459 96.236459 0 0 0-192.472918 0v261.99825a95.648755 95.648755 0 0 0 0.822785 11.930382zM524.96621 362.583715h40.551546v499.753727h-40.551546zM452.208509 362.583715h40.551546v499.753727h-40.551546zM881.687582 362.583715h40.551546v499.753727h-40.551546zM808.92988 362.583715h40.551546v499.753727h-40.551546zM168.347686 362.583715h40.551546v499.753727h-40.551546zM95.589985 362.583715h40.551546v499.753727h-40.551546zM508.863132 250.08256a70.965206 70.965206 0 1 1 70.965206-70.965206 71.053361 71.053361 0 0 1-70.965206 70.965206z m0-113.309248a42.344042 42.344042 0 1 0 42.344042 42.344042 42.38812 42.38812 0 0 0-42.344042-42.373427z" p-id="8565" class="selected" fill="#f96603"></path></svg>