<?xml version="1.0" standalone="no"?><!DOCTYPE svg PUBLIC "-//W3C//DTD SVG 1.1//EN" "http://www.w3.org/Graphics/SVG/1.1/DTD/svg11.dtd"><svg t="1510218992871" class="icon" style="" viewBox="0 0 1024 1024" version="1.1" xmlns="http://www.w3.org/2000/svg" p-id="22917" xmlns:xlink="http://www.w3.org/1999/xlink" width="32" height="32"><defs><style type="text/css"></style></defs><path d="M893.608 165.527H702.805v-62.999c0-34.804-28.463-62.997-63.603-62.997H384.797c-35.141 0-63.602 28.193-63.602 62.997v62.999H130.391c-70.247 0-127.203 56.413-127.203 125.988v566.961c0 69.58 56.956 125.992 127.203 125.992h763.217c70.247 0 127.203-56.414 127.203-125.992V291.515c0.001-69.576-56.956-125.988-127.203-125.988z m-508.811-31.501c0-17.385 14.246-31.5 31.8-31.5h190.804c17.555 0 31.801 14.112 31.801 31.5v31.5H384.797v-31.5z m572.411 724.451c0 34.805-28.461 62.998-63.602 62.998H130.39c-35.139 0-63.602-28.193-63.602-62.998V512H389.28c-2.639 10.144-4.484 20.566-4.484 31.499 0 69.579 56.956 125.989 127.203 125.989S639.2 613.076 639.2 543.499c0-10.931-1.844-21.354-4.483-31.499h322.491v346.477z m-508.81-314.978c0-11.526 3.37-22.204 8.807-31.499H566.79c5.438 9.295 8.81 19.969 8.81 31.499 0 34.804-28.462 62.995-63.602 62.995-35.138 0.002-63.6-28.191-63.6-62.995z m508.81-94.492H66.79V291.515c0-34.804 28.461-62.995 63.602-62.995h763.217c35.139 0 63.602 28.191 63.602 62.995v157.492h-0.003z" p-id="22918" fill="#13227a"></path></svg>