<?xml version="1.0" standalone="no"?><!DOCTYPE svg PUBLIC "-//W3C//DTD SVG 1.1//EN" "http://www.w3.org/Graphics/SVG/1.1/DTD/svg11.dtd"><svg t="1510217181805" class="icon" style="" viewBox="0 0 1024 1024" version="1.1" xmlns="http://www.w3.org/2000/svg" p-id="2323" xmlns:xlink="http://www.w3.org/1999/xlink" width="16" height="16"><defs><style type="text/css"></style></defs><path d="M743.452055 126.246575l-62.121331 0c-12.023483-12.023483-30.058708-20.039139-48.093933-20.039139l-12.023483 0c-6.011742-56.109589-52.101761-100.195695-110.215264-100.195695-58.113503 0-104.203523 44.086106-110.215264 100.195695l-8.015656 0c-20.039139 0-36.07045 8.015656-48.093933 20.039139L282.551859 126.246575c-56.109589 0-120.234834 44.086106-120.234834 100.195695l0 681.330724c0 56.109589 64.125245 100.195695 120.234834 100.195695l460.900196 0c56.109589 0 120.234834-44.086106 120.234834-100.195695l0-681.330724C863.686888 170.332681 797.55773 126.246575 743.452055 126.246575zM510.998043 60.117417c32.062622 0 56.109589 26.050881 56.109589 56.109589 0 32.062622-26.050881 56.109589-56.109589 56.109589s-56.109589-26.050881-56.109589-56.109589C454.888454 86.168297 478.935421 60.117417 510.998043 60.117417zM803.569472 847.655577c0 56.109589-44.086106 100.195695-100.195695 100.195695l-380.74364 0c-56.109589 0-100.195695-44.086106-100.195695-100.195695l0-581.135029c0-56.109589 44.086106-100.195695 100.195695-100.195695l0 0c0 4.007828 0 6.011742 0 10.019569 0 38.074364 32.062622 70.136986 70.136986 70.136986l240.469667 0c38.074364 0 70.136986-32.062622 70.136986-70.136986 0-4.007828 0-6.011742-2.003914-10.019569l2.003914 0c56.109589 0 100.195695 44.086106 100.195695 100.195695L803.569472 847.655577zM713.393346 627.225049l-400.782779 0c-16.031311 0-30.058708 14.027397-30.058708 30.058708 0 16.031311 14.027397 30.058708 30.058708 30.058708l400.782779 0c16.031311 0 30.058708-14.027397 30.058708-30.058708C743.452055 641.252446 729.424658 627.225049 713.393346 627.225049zM713.393346 326.637965l-400.782779 0c-16.031311 0-30.058708 14.027397-30.058708 30.058708 0 16.031311 14.027397 30.058708 30.058708 30.058708l400.782779 0c16.031311 0 30.058708-14.027397 30.058708-30.058708C743.452055 340.665362 729.424658 326.637965 713.393346 326.637965zM713.393346 426.833659l-400.782779 0c-16.031311 0-30.058708 14.027397-30.058708 30.058708 0 16.031311 14.027397 30.058708 30.058708 30.058708l400.782779 0c16.031311 0 30.058708-14.027397 30.058708-30.058708C743.452055 440.861057 729.424658 426.833659 713.393346 426.833659zM713.393346 527.029354l-400.782779 0c-16.031311 0-30.058708 14.027397-30.058708 30.058708 0 16.031311 14.027397 30.058708 30.058708 30.058708l400.782779 0c16.031311 0 30.058708-14.027397 30.058708-30.058708C743.452055 541.056751 729.424658 527.029354 713.393346 527.029354zM472.923679 731.428571c-68.133072 34.066536-110.215264 138.270059-110.215264 138.270059l-26.050881-52.101761-54.105675 32.062622c24.046967 8.015656 56.109589 34.066536 84.164384 70.136986 20.039139-36.07045 80.156556-110.215264 110.215264-116.227006C462.90411 777.518591 470.919765 755.475538 472.923679 731.428571z" p-id="2324" fill="#13227a"></path></svg>