<?xml version="1.0" standalone="no"?><!DOCTYPE svg PUBLIC "-//W3C//DTD SVG 1.1//EN" "http://www.w3.org/Graphics/SVG/1.1/DTD/svg11.dtd"><svg t="1510217775095" class="icon" style="" viewBox="0 0 1820 1024" version="1.1" xmlns="http://www.w3.org/2000/svg" p-id="6254" xmlns:xlink="http://www.w3.org/1999/xlink" width="28.4375" height="16"><defs><style type="text/css"></style></defs><path d="M1103.54963 803.934815H715.188148c-10.714074 0-19.437037-8.722963-19.437037-19.437037s8.722963-19.437037 19.437037-19.437037h388.361482c10.714074 0 19.437037 8.722963 19.437037 19.437037s-8.722963 19.437037-19.437037 19.437037z m0 0" fill="#13227a" p-id="6255"></path><path d="M1181.202963 221.392593c-10.714074 0-19.437037 8.722963-19.437037 19.437037v582.542222c0 10.714074-8.722963 19.437037-19.437037 19.437037H715.188148c-32.142222 0-58.216296-26.168889-58.216296-58.216296s26.168889-58.216296 58.216296-58.216297h349.487408c32.142222 0 58.216296-26.168889 58.216296-58.216296V201.955556c0-32.142222-26.168889-58.216296-58.216296-58.216297H676.314074c-32.142222 0-58.216296 26.168889-58.216296 58.216297v582.542222c0 53.475556 43.614815 97.09037 97.09037 97.09037h427.235556c32.142222 0 58.216296-26.168889 58.216296-58.216296V240.82963c0-10.714074-8.722963-19.437037-19.437037-19.437037z m-504.888889-38.874074h388.361482c10.714074 0 19.437037 8.722963 19.437037 19.437037v466.014814c0 10.714074-8.722963 19.437037-19.437037 19.437037H715.188148c-21.807407 0-42.002963 7.300741-58.216296 19.437037V201.955556c-0.094815-10.714074 8.628148-19.437037 19.342222-19.437037z m0 0" fill="#13227a" p-id="6256"></path></svg>