<?xml version="1.0" standalone="no"?><!DOCTYPE svg PUBLIC "-//W3C//DTD SVG 1.1//EN" "http://www.w3.org/Graphics/SVG/1.1/DTD/svg11.dtd"><svg t="1510123493921" class="icon" style="" viewBox="0 0 1024 1024" version="1.1" xmlns="http://www.w3.org/2000/svg" p-id="12907" xmlns:xlink="http://www.w3.org/1999/xlink" width="16" height="16"><defs><style type="text/css"></style></defs><path d="M194.994176 377.778176l0-163.084288c0-9.383936-6.793216-16.027648-18.184192-16.027648L114.946048 198.66624c-11.388928 0-23.666688 6.643712-23.666688 16.027648l0 163.084288c0 9.383936 12.27776 18.089984 23.666688 18.089984l61.865984 0C188.20096 395.86816 194.994176 387.162112 194.994176 377.778176zM911.443968 0 108.609536 0C78.587904 0 54.759424 22.92736 54.759424 52.95104l0 793.219072c0 30.025728 23.82848 55.123968 53.850112 55.123968l7.501824 0 0 78.159872c0 24.358912 25.284608 44.546048 57.05728 44.546048l45.69088 0c31.772672 0 57.935872-20.187136 57.935872-44.546048l0-78.159872 477.671424 0 0 78.159872c0 24.358912 26.140672 44.546048 57.913344 44.546048l45.69088 0c31.772672 0 60.002304-20.187136 60.002304-44.546048L918.073344 900.28032c24.832-2.625536 48.205824-25.841664 48.205824-54.110208L966.279168 52.95104C966.281216 22.92736 941.469696 0 911.443968 0zM891.78112 765.104128c0 40.28416-32.792576 73.375744-73.07264 73.375744L198.64576 838.479872c-40.278016 0-72.306688-33.091584-72.306688-73.375744l0-42.022912-11.393024 0c-19.027968 0-39.733248-15.702016-39.733248-36.118528l0-163.086336c0-20.20352 19.918848-33.058816 39.733248-33.058816l11.393024 0 0-77.420544-11.393024 0c-19.027968 0-39.733248-15.200256-39.733248-35.618816l0-163.084288c0-20.205568 19.918848-33.558528 39.733248-33.558528l11.393024 0L126.339072 138.248192c0-40.280064 32.028672-72.513536 72.306688-72.513536L818.70848 65.734656c40.280064 0 73.07264 32.233472 73.07264 72.513536L891.78112 765.104128zM194.994176 686.962688l0-163.086336c0-9.383936-6.793216-15.527936-18.184192-15.527936L114.946048 508.348416c-11.388928 0-23.666688 6.144-23.666688 15.527936l0 163.086336c0 9.381888 12.27776 18.587648 23.666688 18.587648l61.865984 0C188.20096 705.552384 194.994176 696.344576 194.994176 686.962688zM420.808704 449.97632m-80.90624 0a39.505 39.505 0 1 0 161.81248 0 39.505 39.505 0 1 0-161.81248 0ZM420.810752 331.911168m-23.783424 0a11.613 11.613 0 1 0 47.566848 0 11.613 11.613 0 1 0-47.566848 0ZM534.628352 415.15008m-23.783424 0a11.613 11.613 0 1 0 47.566848 0 11.613 11.613 0 1 0-47.566848 0ZM308.688896 415.15008m-23.783424 0a11.613 11.613 0 1 0 47.566848 0 11.613 11.613 0 1 0-47.566848 0ZM351.158272 545.961984m-23.783424 0a11.613 11.613 0 1 0 47.566848 0 11.613 11.613 0 1 0-47.566848 0ZM492.158976 545.961984m-23.783424 0a11.613 11.613 0 1 0 47.566848 0 11.613 11.613 0 1 0-47.566848 0ZM818.70848 103.714816 198.64576 103.714816c-19.67104 0-34.328576 14.860288-34.328576 34.533376l0 42.887168 12.4928 0c20.85888 0 35.713024 14.553088 35.713024 33.558528l0 163.084288c0 20.002816-15.847424 35.618816-35.713024 35.618816l-12.4928 0 0 77.420544 12.4928 0c20.85888 0 35.713024 14.053376 35.713024 33.058816l0 163.086336c0 20.002816-15.847424 36.118528-35.713024 36.118528l-12.4928 0 0 42.022912c0 19.675136 14.655488 36.857856 34.328576 36.857856L818.70848 801.961984c19.673088 0 35.09248-17.18272 35.09248-36.857856L853.80096 138.248192C853.80096 118.575104 838.381568 103.714816 818.70848 103.714816zM420.810752 607.117312c-86.786048 0-157.140992-70.352896-157.140992-157.140992 0-86.781952 70.352896-157.1328 157.140992-157.1328 86.784 0 157.136896 70.350848 157.136896 157.1328C577.947648 536.762368 507.594752 607.117312 420.810752 607.117312zM783.683584 643.278848c0 9.381888-7.604224 16.98816-16.986112 16.98816l-30.30016 0c-9.381888 0-16.986112-7.606272-16.986112-16.98816L719.4112 262.397952c0-9.381888 7.606272-16.98816 16.986112-16.98816l30.30016 0c9.381888 0 16.986112 7.606272 16.986112 16.98816L783.683584 643.278848z" p-id="12908" fill="#13227a"></path></svg>