<?xml version="1.0" standalone="no"?><!DOCTYPE svg PUBLIC "-//W3C//DTD SVG 1.1//EN" "http://www.w3.org/Graphics/SVG/1.1/DTD/svg11.dtd"><svg t="1510188044639" class="icon" style="" viewBox="0 0 1024 1024" version="1.1" xmlns="http://www.w3.org/2000/svg" p-id="12288" xmlns:xlink="http://www.w3.org/1999/xlink" width="16" height="16"><defs><style type="text/css"></style></defs><path d="M918.125714 137.874286C692.406857 137.874286 536.941714 9.837714 535.332571 8.521143a32.804571 32.804571 0 0 0-46.153142 4.169143C409.307429 110.226286 203.556571 136.009143 105.472 136.009143c-7.789714 0.987429-16.786286 3.218286-22.820571 9.106286a30.72 30.72 0 0 0-9.508572 22.125714v358.290286c0 154.185143 242.651429 466.468571 441.234286 466.468571 207.908571 0 435.858286-319.488 435.858286-455.204571V169.069714a31.744 31.744 0 0 0-32.109715-31.195428z m-32.146285 398.921143c0 107.958857-206.445714 392.777143-371.602286 392.777142-157.988571 0-376.978286-280.466286-376.978286-404.041142V197.632c78.994286-3.584 274.724571-22.674286 380.781714-123.209143 52.918857 37.12 186.258286 116.48 367.872 125.147429v337.225143h-0.073142zM366.921143 305.225143a32.548571 32.548571 0 0 0-42.825143-14.628572 30.902857 30.902857 0 0 0-15.104 41.691429l173.750857 351.012571c5.302857 10.788571 16.457143 17.554286 28.708572 17.664h0.219428a32.292571 32.292571 0 0 0 28.781714-17.298285l179.419429-351.012572a30.72 30.72 0 0 0-14.482286-41.801143 32.548571 32.548571 0 0 0-43.008 14.043429l-150.235428 293.778286-145.188572-293.449143z" p-id="12289" fill="#0ef11d"></path></svg>