<?xml version="1.0" standalone="no"?><!DOCTYPE svg PUBLIC "-//W3C//DTD SVG 1.1//EN" "http://www.w3.org/Graphics/SVG/1.1/DTD/svg11.dtd"><svg t="1510231374985" class="icon" style="" viewBox="0 0 1024 1024" version="1.1" xmlns="http://www.w3.org/2000/svg" p-id="20913" xmlns:xlink="http://www.w3.org/1999/xlink" width="32" height="32"><defs><style type="text/css"></style></defs><path d="M707.101322 281.938326l-146.60793 209.762115h115.030837v45.110132h-135.330396v63.154185h135.330396v47.365638h-135.330396v92.475771h-69.920705v-92.475771h-139.84141v-47.365638h139.84141v-63.154185h-139.84141v-45.110132h119.54185l-146.607929-209.762115h78.942731c67.665198 103.753304 110.519824 169.162996 124.052863 196.229075h2.255507c4.511013-11.277533 18.044053-33.832599 40.599119-69.920705l83.453745-128.563877 74.431718 2.255507z" fill="#f7611b" p-id="20914"></path><path d="M986.784141 665.374449c-63.154185 207.506608-254.872247 358.625551-480.422908 358.625551-227.806167 0-419.524229-151.118943-482.678414-360.881057h74.431718c60.898678 157.885463 230.061674 304.493392 408.246696 304.493392 175.929515 0 345.092511-146.60793 405.99119-302.237886h-74.431718l148.863436-151.118942v151.118942zM506.361233 60.898678C328.176211 60.898678 159.013216 202.995595 98.114537 360.881057h74.431719L23.682819 512V360.881057C86.837004 151.118943 278.555066 0 506.361233 0 734.167401 0 925.885463 151.118943 989.039648 360.881057h-69.920705C858.220264 202.995595 682.290749 60.898678 506.361233 60.898678z" fill="#f7611b" p-id="20915"></path></svg>