<?xml version="1.0" standalone="no"?><!DOCTYPE svg PUBLIC "-//W3C//DTD SVG 1.1//EN" "http://www.w3.org/Graphics/SVG/1.1/DTD/svg11.dtd"><svg t="1510124872997" class="icon" style="" viewBox="0 0 1024 1024" version="1.1" xmlns="http://www.w3.org/2000/svg" p-id="6649" xmlns:xlink="http://www.w3.org/1999/xlink" width="16" height="16"><defs><style type="text/css"></style></defs><path d="M999.04 491.328L527.296 6.208a21.76 21.76 0 0 0-30.464 0L24.896 491.392a88.32 88.32 0 0 0 0 122.688c16 16.64 37.504 25.792 60.544 25.792h42.688V960a64 64 0 0 0 64 64h170.624a64 64 0 0 0 64-64v-170.624a64 64 0 0 1 64-64h42.688a64 64 0 0 1 64 64V960a64 64 0 0 0 64 64H832a64 64 0 0 0 64-64V639.808h42.688c22.784 0 44.352-9.216 60.352-25.792 33.088-33.92 33.088-88.96 0-122.688z" fill="#fd0202" p-id="6650"></path></svg>