<?xml version="1.0" standalone="no"?><!DOCTYPE svg PUBLIC "-//W3C//DTD SVG 1.1//EN" "http://www.w3.org/Graphics/SVG/1.1/DTD/svg11.dtd"><svg t="1510218450372" class="icon" style="" viewBox="0 0 1024 1024" version="1.1" xmlns="http://www.w3.org/2000/svg" p-id="17612" xmlns:xlink="http://www.w3.org/1999/xlink" width="32" height="32"><defs><style type="text/css"></style></defs><path d="M1010.262646 519.711508c-13.808246 0.645908-24.576 8.270769-32.334769 18.172061-15.856246 20.235815-30.192246 41.6768-44.906339 62.802708-14.154831 20.322462-29.538462 39.384615-53.366153 48.8448-9.554708 3.796677-19.857723 5.702892-30.625477 8.688246 33.027938 36.643446 23.890708 78.430523 14.911015 120.832-4.411077 20.826585-5.954954 42.369969-7.341292 63.677046-0.496246 7.585477 3.316185 15.454523 5.435077 24.347569-20.676923-9.089969-41.818585-8.144738-63.046893-4.253538-9.893415 1.811692-19.755323 3.899077-29.522707 6.285785-40.495262 9.885538-80.384 15.423015-113.923939-14.115447-6.309415 15.092185-10.807138 30.72-18.920369 44.165908-14.651077 24.284554-39.739077 37.210585-62.471877 52.649354a464.730585 464.730585 0 0 0-45.048123 34.973538c-5.387815 4.726154-7.743015 12.910277-11.484554 19.526893h-6.057354c-10.846523-25.308554-33.185477-38.722954-54.697354-53.066831-16.171323-10.783508-33.083077-20.763569-47.860184-33.232738-19.857723-16.754215-31.6416-38.817477-33.0752-64.094524-14.454154 6.333046-28.183631 14.162708-42.952862 18.40837-24.355446 6.994708-48.506092-0.259938-72.633107-4.489846-21.7088-3.796677-43.559385-7.412185-65.496616-9.042708-9.869785-0.732554-20.117662 3.560369-29.861415 5.498092 16.100431-31.940923 3.111385-64.866462-2.756923-98.083446-2.859323-16.163446-5.813169-32.476554-6.522093-48.813292-1.000369-23.032123 8.073846-43.2128 23.087262-61.164308-10.720492-2.953846-20.842338-4.828554-30.247385-8.538585-20.346092-8.034462-35.343754-22.961231-47.568738-40.597661-13.556185-19.566277-25.513354-40.321969-40.085662-59.069046-8.207754-10.555077-19.975877-18.495015-30.775138-26.789416-3.339815-2.56-8.751262-2.418215-13.217477-3.513107v-2.016493c18.613169-2.654523 31.775508-14.146954 42.275446-28.278154 12.555815-16.896 23.520492-34.965662 35.257108-52.476061 20.078277-29.955938 44.142277-54.193231 83.747446-56.761108-0.937354-2.300062-1.260308-4.3008-2.378831-5.639877-20.416985-24.457846-23.339323-52.917169-18.274461-82.794338 3.812431-22.472862 9.097846-44.693662 13.296246-67.103508 3.505231-18.723446 2.426092-37.179077-7.010462-56.312123 29.9008 14.359631 57.982031 7.018338 86.268062 1.268185 19.345723-3.938462 38.880492-7.569723 58.509784-9.357785 22.165662-2.016492 42.448738 4.765538 60.093047 18.699815 1.307569 1.031877 2.6624 2.032246 4.096 2.875077 0.480492 0.283569 1.276062 0.047262 2.953846 0.047262 1.803815-25.678769 12.705477-47.505723 32.673477-63.834585 14.469908-11.831138 30.593969-21.622154 45.560123-32.8704 15.722338-11.823262 31.791262-23.418092 46.032738-36.88763 6.592985-6.238523 9.184492-16.699077 13.595569-25.245539h2.016493c2.717538 19.597785 16.092554 32.185108 30.538831 42.952862 19.070031 14.209969 39.652431 26.364062 59.202953 39.95963 24.591754 17.108677 42.330585 39.0144 46.087877 69.994339 0.2048 1.662031 0.6144 3.308308 1.079139 4.923077 0.157538 0.535631 0.779815 0.929477 1.7408 2.000738 34.879015-30.909046 74.822892-24.449969 115.333907-15.375754 16.990523 3.804554 34.2016 7.758769 51.48357 8.767016 13.627077 0.795569 27.514092-2.812062 40.77883-4.4032-1.339077 5.12-4.032985 12.8-5.285415 20.700554-3.623385 22.795815 2.993231 44.575508 7.301908 66.607261 3.284677 16.777846 6.600862 33.618708 8.341661 50.593477 2.394585 23.339323-4.615877 44.488862-18.45563 63.3856-0.984615 1.346954-1.969231 2.701785-2.788431 4.151139-0.275692 0.488369-0.047262 1.268185-0.047262 2.78843 26.576738 2.2528 48.766031 13.887015 65.488739 34.477293 10.759877 13.241108 19.574154 28.041846 29.711754 41.810707 11.492431 15.619938 22.386215 31.933046 35.713969 45.859446 7.104985 7.427938 18.810092 10.452677 28.443569 15.4624-0.015754 0.677415-0.015754 1.354831-0.015754 2.02437z" fill="#13227a" p-id="17613" class="selected"></path><path d="M383.0784 830.755446c5.994338 14.367508 10.618092 28.735015 17.7152 41.755569 12.232862 22.441354 34.138585 34.422154 55.232985 46.891323 21.511877 12.721231 45.276554 22.520123 56.123077 44.079262 11.941415-10.1376 22.890338-20.802954 35.217723-29.506954 12.839385-9.058462 27.128123-16.029538 40.581907-24.253046 25.8048-15.785354 45.323815-36.572554 52.09797-67.1744 0.929477-4.1984 1.701415-8.428308 2.804184-13.918523 32.5632 26.773662 68.3008 26.056862 105.645292 16.517908 26.639754-6.805662 52.665108-18.951877 82.999139-9.995816-7.750892-19.007015-3.237415-35.9424 1.181538-52.862031 2.370954-9.097846 5.198769-18.069662 7.467323-27.191138 5.301169-21.275569 10.531446-42.9056 4.552862-64.6144-4.119631-14.9504-11.200985-29.0816-17.053538-43.811446 0.1024-0.031508 1.969231-0.787692 3.899076-1.087016 22.780062-3.520985 42.622031-13.296246 57.01317-31.161107 11.516062-14.296615 21.283446-30.129231 30.712123-45.953969 11.327015-19.007015 21.480369-38.715077 41.771323-49.364677-7.553969-6.782031-15.501785-12.547938-21.677292-19.826216-6.443323-7.601231-11.374277-16.533662-16.604554-25.111631-5.931323-9.728-11.279754-19.810462-17.195323-29.554215-17.983015-29.609354-42.685046-49.671877-78.044554-54.453169-0.732554-0.1024-1.370585-0.960985-1.788062-1.276062 3.954215-6.695385 8.034462-12.831508 11.358523-19.345723 14.769231-29.010708 10.562954-58.6752 2.930216-88.528738-6.577231-25.726031-18.298092-50.829785-10.208493-76.343139-14.068185-0.811323-27.994585-0.724677-41.629538-2.670277-11.216738-1.599015-22.102646-5.553231-33.106708-8.570092-24.505108-6.719015-49.388308-11.823262-74.413292-4.718277-13.193846 3.741538-25.403077 10.941046-38.565415 16.809354-2.819938-21.756062-10.452677-42.306954-27.506216-57.178585-13.296246-11.594831-28.270277-21.433108-43.228554-30.909046-20.818708-13.201723-44.307692-22.827323-55.477169-44.110769-12.736985 10.688985-24.615385 21.756062-37.643815 31.239877-9.704369 7.0656-20.968369 11.972923-31.421046 18.030277-32.854646 19.038523-57.154954 44.362831-60.983139 84.566646-40.298338-27.663754-71.294031-24.969846-114.617108-13.248985-24.064 6.506338-47.8208 16.013785-72.31803 8.223508 0 12.626708 1.008246 24.694154-0.299323 36.501662-1.173662 10.570831-5.135754 20.810831-7.443693 31.295015-3.324062 15.044923-6.971077 30.058338-9.216 45.276554-4.088123 27.711015 4.513477 52.287015 21.244062 74.303015-6.262154 1.378462-11.862646 2.433969-17.376493 3.859693-32.027569 8.247138-51.373292 31.145354-67.670646 57.966276-14.800738 24.355446-24.497231 52.783262-49.853046 65.591139 9.483815 10.570831 19.881354 20.464246 28.191508 31.885785 8.247138 11.334892 14.304492 24.237292 21.464615 36.37563 14.966154 25.387323 33.248492 47.230031 62.597908 56.666585 7.231015 2.323692 14.753477 3.725785 22.472861 5.632-15.832615 20.298831-24.032492 42.9056-21.590646 67.938461 1.717169 17.581292 5.986462 34.989292 10.090339 52.239754 5.230277 21.952985 13.634954 43.449108 5.356307 67.8912 21.125908-7.191631 39.951754-2.158277 58.848493 2.953846 13.934277 3.773046 27.884308 7.609108 42.015507 10.452677 31.5392 6.340923 60.754708 0.811323 85.346462-18.203569z" fill="#FFFFFF" p-id="17614"></path><path d="M202.279385 517.238154c2.181908-174.048492 142.895262-312.871385 314.722461-310.500431 172.788185 2.386708 311.815877 144.265846 309.082585 315.431385-2.7648 173.394708-144.927508 310.437415-319.535262 308.027077-167.085292-2.307938-306.372923-145.565538-304.269784-312.958031z" fill="#13227a" p-id="17615" class="selected"></path><path d="M427.015877 729.095877c2.111015 25.269169 20.527262 36.564677 37.9904 48.553354 17.589169 12.075323 36.887631 22.031754 47.261538 38.281846 13.367138-10.429046 26.080492-21.023508 39.479139-30.656985 20.850215-14.981908 45.859446-25.954462 49.553723-56.359384 14.280862 12.051692 30.192246 11.972923 46.528985 10.003692 26.238031-3.158646 51.475692-14.989785 77.634953-8.483446 0-10.539323-0.960985-20.606031 0.236308-30.4128 1.575385-12.965415 5.088492-25.686646 7.325539-38.596923 3.355569-19.377231 6.057354-38.785969-8.869416-56.130954 16.415508-0.897969 27.766154-9.271138 36.895508-20.850215 6.025846-7.632738 11.0592-16.037415 16.714831-23.969477 10.775631-15.115815 19.070031-32.366277 37.123938-41.936739-19.6608-12.020185-29.2864-31.232-41.188431-48.553354-12.303754-17.92-23.7568-36.864-49.553723-38.612677 11.492431-13.9264 12.240738-28.837415 10.570831-44.764553-2.804185-26.757908-15.265477-52.381538-8.924554-78.903139-8.192 0-15.927138 0.842831-23.402338-0.181169-13.934277-1.921969-27.695262-5.096369-41.5744-7.443692-20.5824-3.489477-41.314462-7.593354-59.919754 8.050215-0.795569-14.840123-8.199877-25.253415-18.621046-34.6112-21.795446-19.566277-51.5072-29.073723-67.04837-53.783631-9.3184 8.215631-17.6128 16.360369-26.773661 23.378708-9.554708 7.325538-20.054646 13.4144-29.940185 20.322461-15.596308 10.893785-30.042585 22.756431-31.421046 44.480985-15.682954-13.0048-33.098831-12.043815-50.609231-9.578338-24.631138 3.465846-48.474585 13.855508-74.98043 7.593353 5.632 22.260185-1.669908 42.496-5.309047 63.15717-3.773046 21.4016-8.688246 43.094646 7.459447 62.377353-17.896369 2.623015-26.592492 8.255015-38.061293 22.472862-17.439508 21.622154-27.332923 49.270154-50.617107 63.598277 7.459446 7.963569 15.328492 15.170954 21.724553 23.504738 8.554338 11.153723 15.935015 23.213292 23.882831 34.831754 10.570831 15.454523 22.882462 28.490831 41.322339 29.412431-2.977477 7.821785-7.420062 15.218215-8.349539 23.04-1.173662 9.854031-0.189046 20.141292 1.110646 30.074092 3.150769 24.048246 13.248985 47.3088 7.223139 71.254646 10.161231 0 19.794708-0.756185 29.254892 0.2048 9.972185 1.008246 19.755323 3.749415 29.648739 5.568985 22.134154 4.056615 44.433723 9.972185 66.221292-6.333046z" fill="#FFFFFF" p-id="17616"></path><path d="M695.406277 570.241969c-4.907323 1.819569-9.712246 4.017231-14.753477 5.340554-3.843938 1.008246-7.9872 0.882215-11.996554 1.291815-7.569723 0.764062-10.413292 4.245662-10.389661 12.508554 0.055138 22.598892-9.759508 32.3584-32.523816 35.359508-6.876554 0.905846-13.855508 2.599385-20.243692 5.246031-5.828923 2.410338-7.546092 6.876554-2.882954 12.894523 2.284308 2.953846 2.701785 7.341292 3.969969 11.082831-3.914831 1.024-7.829662 2.945969-11.744492 2.930215-35.973908-0.110277-71.947815-0.756185-107.921723-0.8192-18.810092-0.031508-37.628062 0.937354-56.446031 1.055508-2.930215 0.015754-7.144369-1.346954-8.444061-3.489477-1.142154-1.882585 0.165415-6.285785 1.772307-8.625231 6.128246-8.924554 5.151508-13.745231-5.080615-17.069292-6.002215-1.953477-12.421908-2.835692-18.723446-3.591877-19.448123-2.323692-28.5696-11.760246-29.924431-31.4368-1.039754-15.068554-1.165785-14.942523-16.297354-16.974769-7.262523-0.976738-14.391138-2.993231-21.582769-4.544985l-0.244185-4.395323c3.639138-1.551754 7.175877-4.119631 10.925293-4.481969 17.384369-1.669908 34.831754-2.733292 52.24763-4.017231 1.677785-0.126031 3.363446-0.181169 5.033354-0.378092 38.4-4.544985 48.616369-16.053169 48.616369-54.689477 0-4.371692-0.047262-8.751262 0.063016-13.122954 0.638031-24.969846 6.262154-33.461169 29.711754-41.818585 17.376492-6.191262 22.457108-11.965046 13.95003-34.075569-4.363815-11.334892-5.600492-21.921477-2.331569-33.287877 3.520985-12.240738 11.862646-18.573785 24.245169-18.550154 11.374277 0.015754 19.802585 6.608738 23.252677 18.408369 3.103508 10.618092 3.410708 21.070769-1.614769 31.389539a46.985846 46.985846 0 0 0-4.056615 12.398277c-2.000738 11.586954 0.535631 17.927877 11.886277 20.897477 29.546338 7.711508 37.738338 28.112738 35.800615 55.563815-0.070892 1.000369-0.007877 2.016492-0.007877 3.024739 0.086646 39.297969 10.287262 50.435938 49.947569 53.893907 17.738831 1.543877 35.540677 2.402462 53.279508 3.930585 4.032985 0.346585 7.947815 2.189785 11.909908 3.339815l0.598646 4.8128z" fill="#13227a" p-id="17617" class="selected"></path></svg>