<?xml version="1.0" standalone="no"?><!DOCTYPE svg PUBLIC "-//W3C//DTD SVG 1.1//EN" "http://www.w3.org/Graphics/SVG/1.1/DTD/svg11.dtd"><svg t="1510219216129" class="icon" style="" viewBox="0 0 1024 1024" version="1.1" xmlns="http://www.w3.org/2000/svg" p-id="26472" xmlns:xlink="http://www.w3.org/1999/xlink" width="32" height="32"><defs><style type="text/css"></style></defs><path d="M913.6 147.2h0.8zM672 444.8H561.6l115.2-133.6c9.6-11.2 8-27.2-2.4-36.8-11.2-9.6-27.2-8-36.8 2.4L519.2 414.4 400 276.8c-9.6-11.2-26.4-12-36.8-2.4-11.2 9.6-12 26.4-2.4 36.8l115.2 133.6H371.2c-14.4 0-26.4 12-26.4 26.4 0 14.4 12 26.4 26.4 26.4h119.2v52h-71.2c-14.4 0-26.4 12-26.4 26.4 0 14.4 12 26.4 26.4 26.4h71.2V776c0 14.4 12 26.4 26.4 26.4s26.4-12 26.4-26.4V601.6H624c14.4 0 26.4-12 26.4-26.4 0-14.4-12-26.4-26.4-26.4H543.2v-52H672c14.4 0 26.4-12 26.4-26.4 0-14.4-11.2-25.6-26.4-25.6z" p-id="26473" fill="#13227a"></path><path d="M914.4 147.2c-16-15.2-37.6-23.2-60-23.2h-6.4c-2.4 0-13.6 0.8-24.8 0.8-39.2 0-80.8-3.2-118.4-12.8-8-1.6-16-4.8-24.8-8.8-17.6-8-36-19.2-56.8-34.4-15.2-11.2-57.6-45.6-64-48.8C544.8 10.4 528 5.6 510.4 5.6c-16.8 0-34.4 4.8-48.8 14.4 2.4-1.6-36.8 33.6-60 50.4-27.2 20-54.4 34.4-78.4 40.8-1.6 0-2.4 0.8-4 0.8-36.8 8.8-80 12.8-119.2 12.8-11.2 0-22.4 0-24-0.8h-7.2c-22.4 0-44 8-60 23.2-18.4 16-28 39.2-28 63.2v150.4c0 251.2 73.6 428 198.4 541.6 44.8 40.8 92.8 70.4 141.6 91.2 30.4 12.8 56 20 73.6 23.2 5.6 0.8 10.4 1.6 16 1.6 4.8 0 10.4-0.8 15.2-1.6 18.4-3.2 43.2-10.4 74.4-23.2 48.8-20.8 97.6-50.4 142.4-91.2 125.6-113.6 200-290.4 200-541.6V211.2c0-24.8-10.4-47.2-28-64z m-24.8 213.6c0 236.8-68.8 399.2-182.4 503.2-40 36.8-83.2 63.2-127.2 81.6-27.2 11.2-48.8 17.6-63.2 20-1.6 0-4 0.8-6.4 0.8-2.4 0-4.8 0-6.4-0.8-13.6-2.4-35.2-8.8-61.6-20-43.2-18.4-86.4-44.8-126.4-81.6-113.6-104-181.6-266.4-181.6-503.2V211.2c0-9.6 4-18.4 11.2-24.8 6.4-6.4 15.2-9.6 24.8-9.6h2.4c3.2 0 15.2 0.8 28.8 0.8 43.2 0 89.6-4 131.2-13.6 1.6-0.8 4-0.8 5.6-1.6 31.2-8.8 63.2-25.6 95.2-49.6 24.8-17.6 60-49.6 58.4-49.6 5.6-3.2 12-5.6 19.2-5.6 7.2 0 14.4 2.4 20 5.6 3.2 1.6 44 35.2 61.6 47.2 23.2 16.8 44.8 30.4 65.6 40 12 5.6 23.2 9.6 34.4 12 41.6 9.6 88 13.6 130.4 13.6 12.8 0 25.6-0.8 29.6-0.8h1.6c9.6 0 18.4 3.2 24.8 9.6 7.2 6.4 11.2 15.2 11.2 24.8v151.2z" p-id="26474" fill="#13227a"></path></svg>