<?xml version="1.0" standalone="no"?><!DOCTYPE svg PUBLIC "-//W3C//DTD SVG 1.1//EN" "http://www.w3.org/Graphics/SVG/1.1/DTD/svg11.dtd"><svg t="1510218895673" class="icon" style="" viewBox="0 0 1024 1024" version="1.1" xmlns="http://www.w3.org/2000/svg" p-id="22067" xmlns:xlink="http://www.w3.org/1999/xlink" width="32" height="32"><defs><style type="text/css"></style></defs><path d="M252.99762 384.467395l-52.062749 0 0 102.19452 52.062749 0L252.99762 384.467395zM353.906867 561.341778l-51.815109 0L302.091758 663.934365l51.815109 0L353.906867 561.341778zM353.906867 738.762607l-51.815109 0 0 102.59054 51.815109 0L353.906867 738.762607zM252.99762 739.355101l-52.062749 0 0 102.145401 52.062749 0L252.99762 739.355101zM252.99762 561.936319l-52.062749 0 0 102.145401 52.062749 0L252.99762 561.936319zM252.99762 207.048613l-52.062749 0 0 102.145401 52.062749 0L252.99762 207.048613zM455.161992 562.03558l-51.17145 0 0 101.898785 51.17145 0L455.161992 562.03558zM455.161992 384.615775l-51.17145 0L403.990542 486.513536l51.17145 0L455.161992 384.615775zM455.161992 207.147874l-51.17145 0 0 101.898785 51.17145 0L455.161992 207.147874zM455.161992 739.454362l-51.17145 0 0 101.898785 51.17145 0L455.161992 739.454362zM353.906867 383.874901l-51.815109 0L302.091758 486.513536l51.815109 0L353.906867 383.874901zM353.906867 206.454072l-51.815109 0 0 102.591563 51.815109 0L353.906867 206.454072zM683.505607 409.806503l-52.012607 0 0 76.855412 52.012607 0L683.505607 409.806503zM784.414855 662.697187l-51.789527 0 0 77.301574 51.789527 0L784.414855 662.697187zM607.342973 282.569634 607.342973 4.093225 49.746496 4.093225l0 1013.358639 557.596478 0 0-0.163729 379.87889 0L987.221864 282.569634 607.342973 282.569634zM530.262434 941.962565 126.25603 941.962565 126.25603 81.148182l404.00538 0L530.261411 941.962565zM935.704536 970.469829 581.484026 970.469829 581.484026 334.335624 935.704536 334.335624 935.704536 970.469829zM683.505607 536.549116l-52.012607 0 0 76.80527 52.012607 0L683.505607 536.549116zM683.505607 663.289682l-52.012607 0 0 76.857459 52.012607 0L683.505607 663.289682zM683.505607 790.032294l-52.012607 0 0 76.806293 52.012607 0L683.505607 790.032294zM885.694539 536.697495l-51.147914 0 0 76.558653 51.147914 0L885.694539 536.697495zM885.694539 790.180674l-51.147914 0 0 76.558653 51.147914 0L885.694539 790.180674zM885.694539 663.437038l-51.147914 0 0 76.5607 51.147914 0L885.694539 663.437038zM885.694539 409.954883l-51.147914 0L834.546625 486.513536l51.147914 0L885.694539 409.954883zM784.414855 409.211962l-51.789527 0L732.625328 486.513536l51.789527 0L784.414855 409.211962zM784.414855 535.954575l-51.789527 0 0 77.301574 51.789527 0L784.414855 535.954575zM784.414855 789.437753l-51.789527 0 0 77.301574 51.789527 0L784.414855 789.437753z" p-id="22068" fill="#13227a"></path></svg>