<?xml version="1.0" standalone="no"?><!DOCTYPE svg PUBLIC "-//W3C//DTD SVG 1.1//EN" "http://www.w3.org/Graphics/SVG/1.1/DTD/svg11.dtd"><svg t="1510231005895" class="icon" style="" viewBox="0 0 1024 1024" version="1.1" xmlns="http://www.w3.org/2000/svg" p-id="15965" xmlns:xlink="http://www.w3.org/1999/xlink" width="32" height="32"><defs><style type="text/css"></style></defs><path d="M504.231442 705.257409l-71.39116 0L255.050484 705.257409 183.659323 705.257409c-17.695331 0-32.057212 14.361881-32.057212 32.057212 0 17.695331 14.361881 32.057212 32.057212 32.057212l91.235326 0 138.101467 0 91.235326 0c17.695331 0 32.057212-14.361881 32.057212-32.057212C536.288654 719.61929 521.926772 705.257409 504.231442 705.257409L504.231442 705.257409z" p-id="15966" fill="#ff7516"></path><path d="M504.231442 586.024617l-71.39116 0L255.050484 586.024617 183.659323 586.024617c-17.695331 0-32.057212 14.361881-32.057212 32.057212 0 17.695331 14.361881 32.057212 32.057212 32.057212l91.235326 0 138.101467 0 91.235326 0c17.695331 0 32.057212-14.361881 32.057212-32.057212C536.288654 600.386498 521.926772 586.024617 504.231442 586.024617L504.231442 586.024617z" p-id="15967" fill="#ff7516"></path><path d="M504.231442 466.791824l-71.39116 0L255.050484 466.791824 183.659323 466.791824c-17.695331 0-32.057212 14.361881-32.057212 32.057212 0 17.695331 14.361881 32.057212 32.057212 32.057212l91.235326 0 138.101467 0 91.235326 0c17.695331 0 32.057212-14.361881 32.057212-32.057212C536.288654 481.153705 521.926772 466.791824 504.231442 466.791824L504.231442 466.791824z" p-id="15968" fill="#ff7516"></path><path d="M611.078379 224.399231l117.553545 0 0 147.944033 23.337901-41.450225c9.617164-17.021628 24.234501-31.031632 40.776523-40.199243L792.746349 191.828603l-64.114424-64.114424 0 0.513416-64.114424-64.114424 0.513416 0-64.114424-64.114424L87.487688-0.001252c-35.423219 0-64.114424 28.723763-64.114424 64.114424l0 801.430297c0 35.390661 28.691205 64.114424 64.114424 64.114424 0 0 280.180032 0.673702 471.946023 0.608586l10.13058-64.72301L87.487688 865.543468l0-801.430297 480.858178 0L568.345866 181.666717C568.345866 205.261326 587.483771 224.399231 611.078379 224.399231L611.078379 224.399231z" p-id="15969" fill="#ff7516"></path><path d="M689.554685 543.111781c-7.598561 13.496587-3.077993 30.743618 10.065464 38.501212 13.176015 7.790153 30.006051 3.173163 37.60336-10.322172l100.916353-179.072086c7.597309-13.496587 3.076741-30.742365-10.066716-38.532518-13.174763-7.790153-30.004799-3.174415-37.60336 10.322172L689.554685 543.111781 689.554685 543.111781z" p-id="15970" fill="#ff7516"></path><path d="M966.432573 370.483695c-28.499613-17.214472-67.704581-9.617164-82.740165 16.125028l-100.916353 179.072086 111.238525 65.781148 100.916353-179.072086C1009.453101 426.616374 994.930934 387.666861 966.432573 370.483695L966.432573 370.483695z" p-id="15971" fill="#ff7516"></path><path d="M626.817719 842.429718c-10.642744 18.593183-34.461503 104.539069-22.086918 140.827582l-10.995874 19.201769c-3.783001 6.604287-1.185866 15.29104 5.738992 19.394613 1.537744 0.897852 3.140605 1.538997 4.743466 1.859569 5.770298 1.154561 11.73344-1.218424 14.682453-6.378884l11.637018-20.323771c36.512663-8.527719 94.761619-66.518715 107.488082-88.798477l137.717031-244.244649-111.333695-65.74859L626.817719 842.429718 626.817719 842.429718z" p-id="15972" fill="#ff7516"></path><path d="M181.769701 275.954991l328.188211 0c16.625922 0 24.952031-19.220553 13.196051-30.461865L369.477199 98.547125c-13.040774-12.469755-34.184759-12.469755-47.226785 0L168.574902 245.493127C156.818922 256.734439 165.145031 275.954991 181.769701 275.954991zM345.863806 136.302005c31.476175 0 56.992964 25.516789 56.992964 56.992964 0 31.476175-25.516789 56.992964-56.992964 56.992964s-56.992964-25.516789-56.992964-56.992964C288.870842 161.820047 314.387631 136.302005 345.863806 136.302005z" p-id="15973" fill="#ff7516"></path><path d="M367.168078 184.124854c3.404827 0 5.106614 2.021107 5.106614 6.064573 0 2.057422-0.444543 3.56386-1.329873 4.52182-0.887835 0.956707-2.074953 1.436313-3.56386 1.436313l-14.256694 0 0 8.72432 9.78872 0c3.404827 0 5.106614 2.021107 5.106614 6.064573 0 2.057422-0.444543 3.56386-1.329873 4.52182-0.887835 0.95796-2.074953 1.436313-3.56386 1.436313l-10.000347 0 0 13.830934c0 1.420034-0.514669 2.696062-1.542753 3.829334-1.029337 1.133273-2.78497 1.701787-5.2669 1.701787-2.483182 0-4.238815-0.603577-5.265647-1.808227-1.029337-1.205902-1.542753-2.446867-1.542753-3.724146L339.507462 216.892083l-9.04364 0c-2.483182 0-4.186221-0.478354-5.106614-1.436313-0.922897-0.956707-1.383719-2.463146-1.383719-4.52182 0-2.05617 0.513416-3.581392 1.542753-4.574414 1.028085-0.99177 2.676026-1.488907 4.94758-1.488907l9.04364 0 0-8.72432-14.361881 0c-2.483182 0-4.186221-0.478354-5.106614-1.436313-0.922897-0.95796-1.383719-2.463146-1.383719-4.52182 0-2.05617 0.513416-3.581392 1.542753-4.574414 1.026833-0.99177 2.676026-1.488907 4.94758-1.488907l3.829334 0-8.29856-14.894081c-0.710017-1.276027-0.922897-2.713593-0.63864-4.30894 0.283005-1.596599 1.133273-2.818781 2.553307-3.6703 1.41753-0.85152 2.960283-1.276027 4.62826-1.276027 1.665472 0 2.888906 0.710017 3.6703 2.127547l11.596947 22.021802 7.76636 0 11.171187-21.597294c0.495885-0.85152 1.169587-1.471376 2.021107-1.862073 0.85152-0.388193 1.719318-0.601073 2.607153-0.63864 0.886582-0.035063 1.73685 0.053846 2.553307 0.265474 0.815205 0.21288 1.436313 0.462075 1.862073 0.74508 1.703039 1.207154 2.570838 2.446867 2.607153 3.722894 0.035063 1.276027-0.336851 2.624684-1.116993 4.043466l-8.405 15.319841L367.168078 184.123602z" p-id="15974" fill="#ff7516"></path><path d="M254.160145 442.622439c0 8.29856-6.728258 15.026818-15.026818 15.026818L212.136396 457.649258c-8.29856 0-15.026818-6.728258-15.026818-15.026818l0-141.590193c0-8.29856 6.728258-15.026818 15.026818-15.026818l26.996931 0c8.29856 0 15.026818 6.728258 15.026818 15.026818L254.160145 442.622439z" p-id="15975" fill="#ff7516"></path><path d="M372.471292 442.622439c0 8.29856-6.728258 15.026818-15.026818 15.026818L330.447543 457.649258c-8.29856 0-15.026818-6.728258-15.026818-15.026818l0-141.590193c0-8.29856 6.728258-15.026818 15.026818-15.026818l26.996931 0c8.29856 0 15.026818 6.728258 15.026818 15.026818L372.471292 442.622439z" p-id="15976" fill="#ff7516"></path><path d="M482.667958 442.622439c0 8.29856-6.728258 15.026818-15.026818 15.026818L440.644209 457.649258c-8.29856 0-15.026818-6.728258-15.026818-15.026818l0-141.590193c0-8.29856 6.728258-15.026818 15.026818-15.026818l26.996931 0c8.29856 0 15.026818 6.728258 15.026818 15.026818L482.667958 442.622439z" p-id="15977" fill="#ff7516"></path></svg>