<?xml version="1.0" standalone="no"?><!DOCTYPE svg PUBLIC "-//W3C//DTD SVG 1.1//EN" "http://www.w3.org/Graphics/SVG/1.1/DTD/svg11.dtd"><svg t="1510217525099" class="icon" style="" viewBox="0 0 1024 1024" version="1.1" xmlns="http://www.w3.org/2000/svg" p-id="1853" xmlns:xlink="http://www.w3.org/1999/xlink" width="16" height="16"><defs><style type="text/css"></style></defs><path d="M640 70.4c6.4 0 19.2 6.4 19.2 19.2V256c0 6.4-6.4 19.2-19.2 19.2H390.4c-6.4-6.4-12.8-12.8-12.8-25.6V83.2c0-6.4 6.4-19.2 19.2-19.2H640m0-44.8H390.4c-38.4 0-64 32-64 64v166.4c0 32 25.6 64 64 64H640c38.4 0 64-32 64-64V83.2c0-32-25.6-64-64-64zM230.4 819.2v160H70.4v-160h160m19.2-51.2h-192c-19.2 0-32 12.8-32 32v192c0 19.2 12.8 32 32 32h192c19.2 0 32-12.8 32-32v-192c0-19.2-19.2-32-32-32zM588.8 819.2v160H428.8v-160h160m12.8-51.2h-192c-19.2 0-32 12.8-32 32v192c0 19.2 12.8 32 32 32h192c19.2 0 32-12.8 32-32v-192c0-19.2-12.8-32-32-32zM953.6 819.2v160h-160v-160h160m12.8-51.2h-192c-19.2 0-32 12.8-32 32v192c0 19.2 12.8 32 32 32h192c19.2 0 32-12.8 32-32v-192c0-19.2-12.8-32-32-32zM505.6 358.4c-12.8 0-19.2 6.4-19.2 19.2v320c0 12.8 6.4 19.2 19.2 19.2s19.2-6.4 19.2-19.2v-320c6.4-12.8-6.4-19.2-19.2-19.2z" fill="#13227a" p-id="1854"></path><path d="M851.2 467.2h-704c-12.8 0-19.2 12.8-19.2 19.2s6.4 25.6 19.2 25.6h704c12.8 0 19.2-12.8 19.2-19.2s-6.4-25.6-19.2-25.6z" fill="#13227a" p-id="1855"></path><path d="M147.2 467.2c-12.8 0-19.2 12.8-19.2 19.2v179.2c0 12.8 12.8 19.2 19.2 19.2s19.2-12.8 19.2-19.2V492.8c0-12.8-6.4-25.6-19.2-25.6z" fill="#13227a" p-id="1856"></path><path d="M851.2 467.2c-12.8 0-19.2 12.8-19.2 19.2v179.2c0 12.8 12.8 19.2 19.2 19.2s19.2-12.8 19.2-19.2V492.8c0-12.8-6.4-25.6-19.2-25.6z" fill="#13227a" p-id="1857"></path></svg>