<?xml version="1.0" standalone="no"?><!DOCTYPE svg PUBLIC "-//W3C//DTD SVG 1.1//EN" "http://www.w3.org/Graphics/SVG/1.1/DTD/svg11.dtd"><svg t="1510217306312" class="icon" style="" viewBox="0 0 1024 1024" version="1.1" xmlns="http://www.w3.org/2000/svg" p-id="3981" xmlns:xlink="http://www.w3.org/1999/xlink" width="16" height="16"><defs><style type="text/css"></style></defs><path d="M903.338385 128.516002 122.252857 128.516002c-29.470195 0-53.446259 23.976064-53.446259 53.447283l0 497.665527c0 29.472242 23.976064 53.448306 53.446259 53.448306l364.931456 0 0 110.728894L377.833813 843.806012c-14.145162 0-25.611308 11.466146-25.611308 25.611308s11.467169 25.611308 25.611308 25.611308l269.920546 0c14.145162 0 25.611308-11.466146 25.611308-25.611308s-11.466146-25.611308-25.611308-25.611308L538.407951 843.806012 538.407951 733.078141l364.930433 0c29.471219 0 53.446259-23.977088 53.446259-53.448306L956.784644 181.964308C956.784644 152.492066 932.80858 128.516002 903.338385 128.516002zM905.561006 679.629835c0 1.226944-0.997724 2.225691-2.223644 2.225691L122.252857 681.855526c-1.225921 0-2.222621-0.998747-2.222621-2.225691l0-54.520731 785.531793 0L905.562029 679.629835zM905.561006 573.885466 120.030236 573.885466 120.030236 181.964308c0-1.225921 0.9967-2.224668 2.222621-2.224668l781.085528 0c1.225921 0 2.223644 0.998747 2.223644 2.224668L905.562029 573.885466zM566.575478 381.465015c17.425881-15.050788 28.486798-37.271882 28.486798-62.037938 0-45.225017-36.82879-82.017992-82.09781-82.017992-45.26902 0-82.09781 36.793998-82.09781 82.017992 0 24.708751 11.007705 46.88175 28.364001 61.931514-38.730093 19.457144-65.342194 59.31799-65.342194 105.229646 0 2.004657 0.051165 4.040013 0.153496 6.049786l1.236154 24.311709 235.017618 0 1.249457-24.296359c0.104377-2.007727 0.155543-4.049223 0.155543-6.065136C631.700731 440.761516 605.188914 400.961044 566.575478 381.465015zM512.964466 288.6317c17.024745 0 30.874171 13.814634 30.874171 30.794353 0 16.980743-13.849426 30.795377-30.874171 30.795377-17.023722 0-30.874171-13.814634-30.874171-30.795377C482.090295 302.446333 495.940744 288.6317 512.964466 288.6317zM448.506409 465.72507c8.91095-26.573215 34.362622-45.803185 64.288189-45.803185 29.92659 0 55.378262 19.22997 64.289212 45.803185L448.506409 465.72507z" p-id="3982" fill="#13227a"></path></svg>