<?xml version="1.0" standalone="no"?><!DOCTYPE svg PUBLIC "-//W3C//DTD SVG 1.1//EN" "http://www.w3.org/Graphics/SVG/1.1/DTD/svg11.dtd"><svg t="1510217614455" class="icon" style="" viewBox="0 0 1024 1024" version="1.1" xmlns="http://www.w3.org/2000/svg" p-id="2648" xmlns:xlink="http://www.w3.org/1999/xlink" width="16" height="16"><defs><style type="text/css"></style></defs><path d="M495.1 1020.2c-19.6 0-42.4-0.8-68.4-2-25.6-1.2-52-3.2-78.8-5.2-26.8-2-54-4.8-80.4-7.2-27.2-2.8-51.6-6-74-9.6-19-2.9-37.9-6.3-56.8-10-20.8-4-33.2-9.2-41.6-16.4-13.2-10.8-20.4-30-25.2-65.2-4-28.8-2.8-65.2 4.4-110.4 4.8-31.2 18.4-56 40.4-73.2 19.3-14.9 40.9-26.5 64-34.4 22.7-7.7 45.8-14.4 69.2-20 19.6-4.8 36.8-11.6 51.2-21.2 11.6-7.2 20.4-13.6 26.4-19.6 4.8-4.8 8-9.2 9.6-13.2 1.6-4 2.4-8.2 2.4-12.4 0-7.6-0.4-16.4-1.2-26-1.2-10.8-4.8-14.4-6-15.6-8.4-8-18-16.4-28.4-25.2-8-5.6-16-15.6-22-28-4.1-8.5-8.1-17-12-25.6-3.6-9-6.7-18.2-9.2-27.6-0.8-0.8-1.6-2-2.8-3.2l-2-3.2c-3.3-5.5-6.3-11.1-9.2-16.8-3.2-6.8-6.8-16.4-11.2-29.2-4-13.2-6.8-24.8-8-35.2-1.5-10.2-1.3-20.6 0.4-30.8 0.8-8 2.4-14.8 5.2-21.6 0.4-23.2 1.6-46.8 4.4-69.9 3.3-23.6 8.3-47 14.8-70 7.2-27.2 19.6-52 36-73.6 13.3-18.4 29.2-34.8 47.2-48.7C350 37.5 368 27.1 387.1 19.2c17.8-7.1 36.3-12 55.2-14.8 17.1-2.7 34.3-4 51.6-4 20 1.6 35.2 3.6 46.8 6.4 12.8 3.2 24 6.8 32.4 11.6 9.2 5.2 17.2 11.2 24 18.4 1.5 1.9 3.3 3.7 5.2 5.2h8c9.2 0 18.4 1.2 27.2 3.6 9.6 2.8 19.2 7.6 28.8 15.2 8 6.4 16.4 15.2 24.4 25.6 18.3 23.2 32.4 49.5 41.6 77.6 8.4 26 14.4 51.2 18 74.8 3.6 26 6 51.2 6.8 75.2 1.2 4 2 8 2.8 12.8 2.7 17.5 2.9 35.3 0.4 52.8-1.6 15.6-4.4 28.4-8 39.2-4.4 11.6-8.8 20-14.4 26.8-2.8 3.6-5.8 7-9.2 10-2.2 7.7-4.8 15.3-7.6 22.8-4.4 9.6-8 18.4-12 26.9-5.4 11.6-13.5 21.7-23.6 29.6-10.8 8.8-20.4 16.4-28 23.2-0.4 0.4-3.6 3.2-6 16.4-1.6 7.6-2 14.8-1.6 22 0.4 5.6 2.4 12.4 5.2 19.2 2.8 6 8 12.4 14.8 18.4 7.6 6.4 19.2 12.8 34 18.4 16 6 33.2 11.6 50.8 16 21.6 5.6 40.8 11.6 59.1 18.4 20.4 7.2 39.6 17.2 56 29.6 19.2 14 32.8 32.4 40.4 54.8l0.4 1.6c3.2 10.8 6 24.8 8.4 40.8 2.4 17.2 3.6 34 3.6 49.6 0 17.2-1.2 33.2-4.4 48.8-3.2 17.6-8.4 31.6-16.4 42.4-8 11.2-21.2 18.8-42.8 25.6-16.4 5.2-36.4 9.6-58.8 13.2-52.2 8.8-104.8 15.5-157.5 20-27.6 2.4-54.4 4.4-80.3 5.2-24.9 1.3-47.6 1.7-67.3 1.7z m-359.8-96.8c2.4 0.8 6.8 2 13.6 3.2 15.2 3.2 33.2 6.4 54.4 9.6 21.2 3.2 44.8 6.4 70.8 9.2 26.2 2.8 52.5 5.2 78.8 7.2 26.4 2 52.4 4 77.2 5.2 24.8 1.2 46.4 2 65.2 2 18.8 0 40.8-0.4 66.4-1.6 52.7-2.5 105.3-7.1 157.6-14 26.4-3.2 50.8-6.8 72.4-10.8 20-3.6 37.6-7.2 51.6-11.6 7.2-2 10.8-4 12.8-4.8 2.3-5.4 4.1-11 5.2-16.8 2-12 3.2-24.4 3.2-38 0-13.8-0.9-27.5-2.8-41.2-1.5-10.8-3.6-21.5-6.4-32-3.6-10.3-10.3-19.2-19.2-25.6-12.6-9.2-26.5-16.4-41.2-21.6-17.8-6.5-36-12.1-54.4-16.8-19.2-5-38.2-11.1-56.8-18-22-8.4-39.2-18-52.8-29.6-13.6-12-23.6-24.8-30-38.8-5.8-12.6-9.4-26.1-10.8-40-0.9-12.6 0-25.3 2.8-37.6 4-22.4 12.8-39.2 26.4-50.4 7.6-6.4 18-14.8 30.4-24.8 2-1.6 4-3.2 6.4-8 3.6-7.2 7.2-15.2 10.8-23.2 2.8-6.8 5.6-16 8-26l3.6-13.2 14.8-9.6s1.6-2 4-8.4c1.2-3.6 3.2-11.6 4.8-25.6 1.6-11.6 1.6-18 1.6-21.6-0.4-5.6-0.4-10.4-1.2-14.4-0.4-2-0.8-4.4-1.6-6.4l-2-4.8v-5.2c-0.9-24.3-2.9-48.6-6-72.7-3.6-22.1-8.9-43.9-16-65.2-6.8-21.3-17.4-41.2-31.2-58.8-7.2-8.8-12-13.6-15.2-16-2.2-1.8-4.6-3.3-7.2-4.4-3.5-1.1-7.1-1.7-10.8-1.6h-32.4l-8.8-8.4c-5.2-5.2-10.8-10.4-15.6-15.6-2.7-2.8-5.8-5.1-9.2-6.8-2-1.2-7.6-3.6-17.6-6-11.7-2.4-23.6-4-35.6-4.8-11.2 0-24.8 1.2-40.4 3.2-14.4 2.2-28.4 5.9-42 11.2-13.6 5.2-26.8 12.8-39.2 22.4-12.8 9.6-24.8 22.4-36 37.2-12 16-20.8 33.6-26 53.6-5.6 20.4-10.1 41.1-13.2 62-2.7 22.8-4.1 45.8-4 68.8v7.2l-3.2 6.4c-0.4 1.2-1.6 3.6-2 8.8l-0.8 3.6c-0.7 4-0.7 8 0 12 0.8 6.8 2.8 15.2 5.6 24.4 3.2 9.2 5.6 16.8 8 21.6 2 4 3.6 7.2 5.2 9.6 0.8 1.2 2 2 2.4 2.8l5.6 5.6 2.8 8.4c2.4 10 5.2 18.8 8.4 26.8 2.8 6.8 6.4 14.4 10.4 22 1.1 2.8 2.9 5.3 5.2 7.2 12.8 10.8 22.8 19.6 31.9 28 14.8 13.6 22.8 32 25.2 54.8 0.8 12 1.2 22 1.2 30.8 0 12-2.4 24-7.2 35.6-4.8 11.2-12 22-22.4 32.4-11.3 10.9-23.7 20.6-37.1 28.8-21.2 13.4-44.7 23-69.2 28.4-21.6 5.2-43.2 11.2-63.2 18.4-18 6.4-33.6 14.4-47.2 25.2-9.6 7.6-15.6 19.2-18 34.8-6 38.8-7.6 70-4.4 93.2 2 17.5 4.4 25.5 5.6 29.1m403.4-220.7c2.1-4 2.3-8.7 0.4-12.8-1.9-4.6-4.5-8.9-7.6-12.8-4-4.5-8.2-8.9-12.4-13.2h-47.6c-4.8 4.8-8.8 9.2-11.6 13.2-2.7 3.4-5 7.2-6.8 11.2-1.7 3.6-1.6 7.7 0.3 11.2l12.4 24.8c3.6 7.2 7.2 12.8 11.6 16.4-1.2 6-3.6 14.8-6.4 26-2.8 11.2-5.2 22.4-7.6 34.4-2.4 12-4.4 22.8-6.4 33.2-1.6 10.4-2.4 18.4-2.4 23.6 0 3.2 1.6 7.2 4.8 12 3.2 4.8 6.8 9.6 10.8 14.8 4 5.2 8.4 9.2 12.8 12.8 4.4 3.2 8.4 5.2 12 5.2 3.6 0 7.6-1.6 12.4-5.2 4.8-3.6 9.6-7.2 14-11.6 4.8-4.4 8.4-9.2 11.6-14 3.2-5.2 4.8-9.2 4.8-12.8 0-4-1.2-10.8-3.2-20.4-2-9.6-4.4-20.8-6.8-32.8-2.4-12-4.8-24-7.6-35.2-2.8-11.6-5.2-20.4-7.2-27.2 4-3.2 8-8 12-14.8 3.4-6.5 8.1-15.3 13.7-26" fill="#13227a" p-id="2649"></path></svg>