<?xml version="1.0" standalone="no"?><!DOCTYPE svg PUBLIC "-//W3C//DTD SVG 1.1//EN" "http://www.w3.org/Graphics/SVG/1.1/DTD/svg11.dtd"><svg t="1510219312423" class="icon" style="" viewBox="0 0 1024 1024" version="1.1" xmlns="http://www.w3.org/2000/svg" p-id="27974" xmlns:xlink="http://www.w3.org/1999/xlink" width="32" height="32"><defs><style type="text/css"></style></defs><path d="M852.992 889.856H171.008c-43.52 0-78.848-34.816-78.848-78.336v-404.48c0-42.496 41.472-82.944 83.968-83.968h20.992l-1.024-110.592c0-42.496 35.84-78.336 78.848-78.336l592.896 117.248C926.208 267.776 931.84 312.32 931.84 331.264v480.256c0 43.52-35.328 78.336-78.848 78.336zM271.872 176.128c-17.92 1.536-33.28 17.92-33.28 36.352l1.024 110.592h566.784c18.944 0 42.496-16.384 51.712-31.232L271.872 176.128z m617.984 146.944s-9.72288 41.984-83.96288 41.984h-629.76c-18.944 0-41.984 22.528-41.984 41.984v404.48c0 19.968 16.384 36.352 36.864 36.352h682.496c20.48 0 36.864-16.37888 36.864-36.352V323.072h-0.51712z" fill="#13227a" p-id="27975"></path><path d="M260.096 543.232c29.15328 0 52.736 23.5776 52.736 52.74112 0 29.15328-23.58272 52.736-52.736 52.736s-52.736-23.5776-52.736-52.736A52.69504 52.69504 0 0 1 260.096 543.232z" fill="#13227a" p-id="27976"></path></svg>