<?xml version="1.0" standalone="no"?><!DOCTYPE svg PUBLIC "-//W3C//DTD SVG 1.1//EN" "http://www.w3.org/Graphics/SVG/1.1/DTD/svg11.dtd"><svg t="1510104706573" class="icon" style="" viewBox="0 0 1024 1024" version="1.1" xmlns="http://www.w3.org/2000/svg" p-id="18811" xmlns:xlink="http://www.w3.org/1999/xlink" width="16" height="16"><defs><style type="text/css"></style></defs><path d="M881.467 186.736s-124.685 4.225-204.25-20.059c-88.457-26.95-168.519-99.014-168.519-99.014s-82.347 83.906-155.969 99.014c-45.724 9.393-213.358 19.95-213.192 20.059 0.611 0.337-11.054 227.752 22.006 402.998 23.39 123.628 100.067 194.299 141.238 231.812 83.512 76.003 205.918 134.791 205.918 134.791s119.457-52.559 205.97-128.351c43.949-38.564 123.457-112.295 149.02-238.418 35.725-175.908 17.778-402.827 17.778-402.832zM507.641 644.404l-31.284 34.504-34.669-31.112-157.522-141.352 31.227-34.836 157.579 141.403L728.998 330.2l34.675 31.393-256.032 282.811z" fill="#ffffff" p-id="18812"></path></svg>