<?xml version="1.0" standalone="no"?><!DOCTYPE svg PUBLIC "-//W3C//DTD SVG 1.1//EN" "http://www.w3.org/Graphics/SVG/1.1/DTD/svg11.dtd"><svg t="1510123887558" class="icon" style="" viewBox="0 0 1024 1024" version="1.1" xmlns="http://www.w3.org/2000/svg" p-id="5860" xmlns:xlink="http://www.w3.org/1999/xlink" width="16" height="16"><defs><style type="text/css"></style></defs><path d="M921.6 0l-153.6 0 0 76.8L768 153.6 230.4 153.6 230.4 0 76.8 0C38.0416 0 25.6 13.5168 25.6 51.2l0 899.6352C25.6 988.5696 57.0368 1024 95.744 1024L896 1024c38.7584 0 76.8-39.0656 76.8-76.8L972.8 51.2C972.8 13.5168 960.3584 0 921.6 0zM793.6 691.2 204.8 691.2 204.8 614.4 793.6 614.4 793.6 691.2zM793.6 435.2 204.8 435.2 204.8 358.4 793.6 358.4 793.6 435.2z" p-id="5861" fill="#14c75f"></path><path d="M358.4 0l281.6 0 0 76.8-281.6 0 0-76.8Z" p-id="5862" fill="#14c75f"></path></svg>