<?xml version="1.0" standalone="no"?><!DOCTYPE svg PUBLIC "-//W3C//DTD SVG 1.1//EN" "http://www.w3.org/Graphics/SVG/1.1/DTD/svg11.dtd"><svg t="1510218734913" class="icon" style="" viewBox="0 0 1024 1024" version="1.1" xmlns="http://www.w3.org/2000/svg" p-id="20204" xmlns:xlink="http://www.w3.org/1999/xlink" width="32" height="32"><defs><style type="text/css"></style></defs><path d="M925.696 199.168h-70.144c-14.848 0-26.624 11.776-26.624 26.624 0 14.848 11.776 26.624 26.624 26.624h43.52v718.848h-133.12V225.28c0-2.048-0.512-4.608-1.024-6.656v-0.512c0-39.424-32.256-71.68-72.192-71.68H540.672V52.224h-62.976C471.552 22.528 445.44 0 413.696 0s-57.856 22.528-63.488 52.224h-59.904v94.72H143.872c-39.936 0-72.192 32.256-72.192 71.68V952.32c0 39.424 32.256 71.68 72.192 71.68h781.824c14.848 0 26.624-11.776 26.624-26.624V225.28c0-14.336-11.776-26.112-26.624-26.112z m-512-178.176c24.064 0 43.52 19.456 43.52 43.52s-19.456 43.52-43.52 43.52-43.52-19.456-43.52-43.52 19.456-43.52 43.52-43.52z m297.984 949.76H143.872c-10.24 0-18.944-8.704-18.944-18.944V218.624c0-10.24 8.704-18.944 18.944-18.944h548.864c10.24 0 18.944 8.704 18.944 18.944v752.128z" p-id="20205" class="" fill="#13227a"></path><path d="M602.624 274.432H225.792c-14.848 0-26.624 11.776-26.624 26.624 0 14.848 11.776 26.624 26.624 26.624h376.832c14.848 0 26.624-11.776 26.624-26.624 0-14.848-11.776-26.624-26.624-26.624z m0 177.664H225.792c-14.848 0-26.624 11.776-26.624 26.624 0 14.848 11.776 26.624 26.624 26.624h376.832c14.848 0 26.624-11.776 26.624-26.624 0-14.848-11.776-26.624-26.624-26.624z m0 173.056H225.792c-14.848 0-26.624 11.776-26.624 26.624 0 14.848 11.776 26.624 26.624 26.624h376.832c14.848 0 26.624-11.776 26.624-26.624 0-14.848-11.776-26.624-26.624-26.624zM347.136 799.744H225.792c-14.848 0-26.624 11.776-26.624 26.624 0 14.848 11.776 26.624 26.624 26.624h121.344c14.848 0 26.624-11.776 26.624-26.624 0-14.848-11.776-26.624-26.624-26.624z m178.176-66.048a65.335 65.335 0 0 0-65.536 65.536 65.335 65.335 0 0 0 65.536 65.536 65.335 65.335 0 0 0 65.536-65.536 65.335 65.335 0 0 0-65.536-65.536z m40.96 40.448l-43.008 55.296c-1.024 1.024-2.048 2.048-3.584 2.048h-0.512c-1.536 0-2.56-0.512-3.584-1.536l-34.816-32.256c-2.048-2.048-2.56-5.12-0.512-7.68 2.048-2.048 5.12-2.048 7.68-0.512l30.72 28.16 39.424-50.688c2.048-2.56 5.12-2.56 7.68-1.024 2.048 2.56 2.56 5.632 0.512 8.192z" p-id="20206" fill="#13227a"></path></svg>