<?xml version="1.0" standalone="no"?><!DOCTYPE svg PUBLIC "-//W3C//DTD SVG 1.1//EN" "http://www.w3.org/Graphics/SVG/1.1/DTD/svg11.dtd"><svg t="1510219386936" class="icon" style="" viewBox="0 0 1024 1024" version="1.1" xmlns="http://www.w3.org/2000/svg" p-id="29821" xmlns:xlink="http://www.w3.org/1999/xlink" width="32" height="32"><defs><style type="text/css"></style></defs><path d="M1024 704a128 128 0 0 1-128 128h-64v192l-256-192H128a128 128 0 0 1-128-128V128a128 128 0 0 1 128-128h768a128 128 0 0 1 128 128v576z m-149.12-617.152H149.12c-50.112 0-60.544 14.528-60.544 60.48v544.384c0 45.952 10.432 60.48 60.48 60.48H632.96l120.96 120.96v-120.96h120.96c50.112 0 60.544-14.528 60.544-60.48V147.328c0-45.952-10.432-60.48-60.48-60.48zM768 602.88H256V512h512v90.88z m0-256.64H256V256h512v90.24z" p-id="29822" fill="#13227a"></path></svg>