<?xml version="1.0" standalone="no"?><!DOCTYPE svg PUBLIC "-//W3C//DTD SVG 1.1//EN" "http://www.w3.org/Graphics/SVG/1.1/DTD/svg11.dtd"><svg t="1510216633824" class="icon" style="" viewBox="0 0 1024 1024" version="1.1" xmlns="http://www.w3.org/2000/svg" p-id="13807" xmlns:xlink="http://www.w3.org/1999/xlink" width="16" height="16"><defs><style type="text/css"></style></defs><path d="M637.672727 269.963636H200.145455c-9.309091 0-23.272727-9.309091-23.272728-23.272727 0-9.309091 9.309091-23.272727 23.272728-23.272727h432.872727c9.309091 0 23.272727 9.309091 23.272727 23.272727s-9.309091 23.272727-18.618182 23.272727zM507.345455 418.909091H200.145455c-9.309091 0-18.618182-9.309091-18.618182-18.618182s9.309091-23.272727 23.272727-23.272727h302.545455c9.309091 0 23.272727 9.309091 23.272727 23.272727s-13.963636 18.618182-23.272727 18.618182zM507.345455 567.854545H200.145455c-9.309091 0-23.272727-9.309091-23.272728-23.272727 0-9.309091 9.309091-23.272727 23.272728-23.272727h302.545454c9.309091 0 23.272727 9.309091 23.272727 23.272727s-9.309091 23.272727-18.618181 23.272727zM507.345455 716.8H200.145455c-9.309091 0-23.272727-9.309091-23.272728-23.272727s9.309091-23.272727 23.272728-23.272728h302.545454c9.309091 0 23.272727 9.309091 23.272727 23.272728s-9.309091 23.272727-18.618181 23.272727zM781.963636 456.145455c41.890909 0 79.127273 13.963636 107.054546 46.545454s46.545455 65.163636 46.545454 107.054546c0 41.890909-13.963636 79.127273-46.545454 107.054545s-65.163636 46.545455-107.054546 46.545455-79.127273-13.963636-107.054545-46.545455c-27.927273-27.927273-46.545455-65.163636-46.545455-107.054545 0-41.890909 13.963636-79.127273 46.545455-107.054546 32.581818-32.581818 69.818182-46.545455 107.054545-46.545454m0-41.89091c-107.054545 0-195.490909 88.436364-195.490909 195.49091s88.436364 195.490909 195.490909 195.490909 195.490909-88.436364 195.490909-195.490909-88.436364-195.490909-195.490909-195.49091z" p-id="13808" fill="#13227a"></path><path d="M781.963636 567.854545c23.272727 0 41.890909 18.618182 41.890909 41.89091s-18.618182 41.890909-41.890909 41.890909-41.890909-18.618182-41.890909-41.890909 18.618182-41.890909 41.890909-41.89091m0-41.890909c-46.545455 0-83.781818 37.236364-83.781818 83.781819s37.236364 83.781818 83.781818 83.781818 83.781818-37.236364 83.781819-83.781818-37.236364-83.781818-83.781819-83.781819zM670.254545 977.454545c-9.309091 0-23.272727-4.654545-27.927272-18.618181v-186.181819-4.654545l41.890909 27.927273V791.272727v134.981818l88.436363-60.50909c9.309091-4.654545 23.272727-4.654545 32.581819 0l74.472727 60.50909V791.272727v4.654546l41.890909-27.927273v186.181818c0 9.309091-4.654545 18.618182-13.963636 23.272727-9.309091 4.654545-18.618182 4.654545-27.927273-4.654545L791.272727 902.981818l-102.4 69.818182c-4.654545 0-9.309091 4.654545-18.618182 4.654545z" p-id="13809" fill="#13227a"></path><path d="M591.127273 916.945455h-465.454546c-46.545455 0-79.127273-37.236364-79.127272-79.127273V125.672727C46.545455 83.781818 83.781818 46.545455 125.672727 46.545455h628.363637c46.545455 0 79.127273 37.236364 79.127272 79.127272v237.381818H791.272727V125.672727c0-23.272727-18.618182-37.236364-37.236363-37.236363H125.672727c-23.272727 0-37.236364 18.618182-37.236363 37.236363v707.490909c0 23.272727 18.618182 37.236364 37.236363 37.236364h465.454546v46.545455z" p-id="13810" fill="#13227a"></path></svg>